<svg width="84" height="84" viewBox="0 0 84 84" fill="none" xmlns="http://www.w3.org/2000/svg">
<mask id="mask0_281_349" style="mask-type:luminance" maskUnits="userSpaceOnUse" x="0" y="0" width="84" height="84">
<path d="M0 0H84V84H0V0Z" fill="white"/>
<path fill-rule="evenodd" clip-rule="evenodd" d="M29.8084 46.2293L45.1568 61.5777C46.6213 63.0421 46.6213 65.4165 45.1568 66.881C43.6923 68.3454 41.318 68.3454 39.8535 66.881L23.2248 50.2523C18.9726 46 21.9842 38.7293 27.9978 38.7293L52.9518 38.7293L36.1035 21.881C34.639 20.4165 34.639 18.0421 36.1035 16.5777C37.568 15.1132 39.9423 15.1132 41.4068 16.5777L59.5355 34.7063C63.7877 38.9586 60.7761 46.2293 54.7625 46.2293L29.8084 46.2293Z" fill="black"/>
</mask>
<g mask="url(#mask0_281_349)">
<path d="M7.34925 56.5914C-0.851756 48.3904 -0.851767 35.0939 7.34924 26.8929L26.8929 7.34924C35.0939 -0.85177 48.3904 -0.851783 56.5914 7.34923L76.135 26.8929C84.336 35.0939 84.336 48.3904 76.135 56.5914L56.5914 76.135C48.3904 84.336 35.0939 84.336 26.8929 76.135L7.34925 56.5914Z" fill="url(#paint0_linear_281_349)"/>
</g>
<defs>
<linearGradient id="paint0_linear_281_349" x1="42" y1="-1.22096e-05" x2="43.4" y2="82.95" gradientUnits="userSpaceOnUse">
<stop stop-color="#542FA3"/>
<stop offset="1" stop-color="#E7D3FF"/>
</linearGradient>
</defs>
</svg>
